<svg xmlns="http://www.w3.org/2000/svg" viewBox="0 0 64 64" width="64" height="64" aria-label="오늘 뭐 먹지 logo mark">
  <defs>
    <linearGradient id="bowl" x1="0" y1="0" x2="0" y2="1">
      <stop offset="0" stop-color="#8FAE3C"></stop>
      <stop offset="1" stop-color="#6B8F27"></stop>
    </linearGradient>
  </defs>
  <path d="M22 10 C 20 14, 26 16, 24 20" stroke="#33451A" stroke-width="2.5" stroke-linecap="round" fill="none" opacity=".5"></path>
  <path d="M32 8  C 30 12, 36 14, 34 18" stroke="#33451A" stroke-width="2.5" stroke-linecap="round" fill="none" opacity=".65"></path>
  <path d="M42 10 C 40 14, 46 16, 44 20" stroke="#33451A" stroke-width="2.5" stroke-linecap="round" fill="none" opacity=".5"></path>
  <ellipse cx="32" cy="26" rx="24" ry="5" fill="#E6EFC8"></ellipse>
  <path d="M10 26 C 10 42, 20 54, 32 54 C 44 54, 54 42, 54 26 Z" fill="url(#bowl)"></path>
  <path d="M14 34 C 20 38, 44 38, 50 34" stroke="#E6EFC8" stroke-width="2.5" stroke-linecap="round" fill="none" opacity=".85"></path>
  <circle cx="26" cy="41" r="1.8" fill="#1A1F14"></circle>
  <circle cx="38" cy="41" r="1.8" fill="#1A1F14"></circle>
  <circle cx="22" cy="45" r="1.8" fill="#C6D88A" opacity=".9"></circle>
  <circle cx="42" cy="45" r="1.8" fill="#C6D88A" opacity=".9"></circle>
</svg>